<?xml version="1.0" encoding="UTF-8" standalone="no"?>
<!DOCTYPE svg PUBLIC "-//W3C//DTD SVG 1.1//EN" "http://www.w3.org/Graphics/SVG/1.1/DTD/svg11.dtd">
<svg width="100%" height="100%" viewBox="0 0 141 31" version="1.1" xmlns="http://www.w3.org/2000/svg" xmlns:xlink="http://www.w3.org/1999/xlink" xml:space="preserve" xmlns:serif="http://www.serif.com/" style="fill-rule:evenodd;clip-rule:evenodd;stroke-linejoin:round;stroke-miterlimit:2;">
    <g transform="matrix(1,0,0,1,-47.2313,-44.1702)">
        <g transform="matrix(1,0,0,1,0,48.1536)">
            <g transform="matrix(1,0,0,1,-15.1036,-60.6889)">
                <g transform="matrix(0.00762907,2.51941e-36,-2.51941e-36,0.00762907,78.5657,72.1696)">
                    <g transform="matrix(1,0,0,1,-2127.5,-2027)">
                        <clipPath id="_clip1">
                            <rect x="0" y="0" width="4255" height="4054"/>
                        </clipPath>
                        <g clip-path="url(#_clip1)">
                            <g transform="matrix(1,0,0,1,-435.461,-348.964)">
                                <g transform="matrix(1,0,0,1,0,680.457)">
                                    <path d="M2756.68,2684.05L2799.27,2774.78C2812.05,2802.05 2797.45,2844.62 2764.19,2877.05L2363.48,3267.79C2330.23,3300.22 2287.3,3313.74 2260.37,3300.28L2109.68,3224.86C2051.6,3262.17 1992.39,3295.95 1932.76,3325.83L1837.67,3541.65C1820.67,3580.21 1781.51,3613.56 1743.64,3621.76L1287.14,3720.5C1249.25,3728.71 1222.87,3709.53 1223.75,3674.46L1228.74,3478.12C1177.81,3472.16 1129.36,3461.67 1083.95,3446.75L877.905,3599.34C841.093,3626.6 800.324,3631.17 780.003,3610.33L535.15,3359.24C514.828,3338.4 520.425,3297.76 548.61,3261.64L706.334,3059.5C692.561,3013.74 683.29,2965.04 678.616,2913.97L482.218,2914.02C447.135,2914.02 428.639,2887.14 437.782,2849.48L547.992,2395.62C557.136,2357.97 591.461,2319.66 630.435,2303.64L848.588,2214C879.954,2155.14 915.215,2096.81 953.974,2039.68L882.374,1887.15C869.593,1859.88 884.189,1817.31 917.446,1784.88L1318.16,1394.13C1351.41,1361.7 1394.34,1348.19 1421.28,1361.65L1571.96,1437.07C1630.04,1399.76 1689.25,1365.98 1748.88,1336.1L1843.98,1120.28C1860.97,1081.72 1900.13,1048.37 1938,1040.17L2394.5,941.425C2432.37,933.232 2458.77,952.4 2457.89,987.472L2452.9,1183.81C2503.83,1189.76 2552.28,1200.26 2597.69,1215.18L2803.74,1062.59C2840.55,1035.33 2881.32,1030.76 2901.64,1051.6L3093.7,1248.55C3115.98,1297.72 3130.58,1338.92 3127.59,1358.83C3123.84,1383.8 3112.2,1416.8 3093.16,1451.38L3011.39,1556.18C2942.68,1619.32 2845.43,1661.53 2723.78,1628.4C2677.65,1615.83 2532.64,1447.07 2320.07,1430.79C2201.62,1421.73 2114.03,1464.22 2043,1536.56C1841.69,1672.59 1660.04,1873.41 1491.53,2052.08C1339.06,2213.74 1154.01,2392.2 1010.22,2561.42C811.117,2795.73 883.59,3074.41 1029.2,3161.83C1174.36,3248.97 1390.55,3354.01 1614.8,3161.87C1725.15,3067.32 1979.5,2810.13 2056.92,2745.38C2106.64,2703.81 2173.85,2642.61 2247.55,2570.47C2418.34,2630.3 2596.45,2668.66 2756.68,2684.05Z" style="fill:white;fill-rule:nonzero;"/>
                                </g>
                                <g transform="matrix(-0.99998,-0.00626047,0.00626047,-0.99998,5107.84,4079.24)">
                                    <path d="M2756.68,2684.05L2799.27,2774.78C2812.05,2802.05 2797.45,2844.62 2764.19,2877.05L2363.48,3267.79C2330.23,3300.22 2287.3,3313.74 2260.37,3300.28L2109.68,3224.86C2051.6,3262.17 1992.39,3295.95 1932.76,3325.83L1837.67,3541.65C1820.67,3580.21 1781.51,3613.56 1743.64,3621.76L1287.14,3720.5C1249.25,3728.71 1222.87,3709.53 1223.75,3674.46L1228.74,3478.12C1177.81,3472.16 1129.36,3461.67 1083.95,3446.75L877.905,3599.34C841.093,3626.6 800.324,3631.17 780.003,3610.33L535.15,3359.24C514.828,3338.4 520.425,3297.76 548.61,3261.64L706.334,3059.5C692.561,3013.74 683.29,2965.04 678.616,2913.97L482.218,2914.02C447.135,2914.02 428.639,2887.14 437.782,2849.48L547.992,2395.62C557.136,2357.97 591.461,2319.66 630.435,2303.64L848.588,2214C879.954,2155.14 915.215,2096.81 953.974,2039.68L882.374,1887.15C869.593,1859.88 884.189,1817.31 917.446,1784.88L1318.16,1394.13C1351.41,1361.7 1394.34,1348.19 1421.28,1361.65L1571.96,1437.07C1630.04,1399.76 1689.25,1365.98 1748.88,1336.1L1843.98,1120.28C1860.97,1081.72 1900.13,1048.37 1938,1040.17L2394.5,941.425C2432.37,933.232 2458.77,952.4 2457.89,987.472L2452.9,1183.81C2503.83,1189.76 2552.28,1200.26 2597.69,1215.18L2803.74,1062.59C2840.55,1035.33 2881.32,1030.76 2901.64,1051.6L3093.7,1248.55C3115.98,1297.72 3130.58,1338.92 3127.59,1358.83C3123.84,1383.8 3112.2,1416.8 3093.16,1451.38L3011.39,1556.18C2942.68,1619.32 2845.43,1661.53 2723.78,1628.4C2677.65,1615.83 2532.64,1447.07 2320.07,1430.79C2201.62,1421.73 2114.03,1464.22 2043,1536.56C1841.69,1672.59 1660.04,1873.41 1491.53,2052.08C1339.06,2213.74 1154.01,2392.2 1010.22,2561.42C811.117,2795.73 883.59,3074.41 1029.2,3161.83C1174.36,3248.97 1390.55,3354.01 1614.8,3161.87C1725.15,3067.32 1979.5,2810.13 2056.92,2745.38C2106.64,2703.81 2173.85,2642.61 2247.55,2570.47C2418.34,2630.3 2596.45,2668.66 2756.68,2684.05Z" style="fill:white;fill-rule:nonzero;"/>
                                </g>
                            </g>
                        </g>
                    </g>
                </g>
                <g transform="matrix(0.415223,0,0,0.415223,20.6603,-15.5721)">
                    <g transform="matrix(59.1629,0,0,59.1629,193.738,233.712)">
                        <path d="M0.133,0L0.267,0L0.431,-0.369L0.438,-0.369L0.479,0L0.613,0L0.859,-0.545L0.727,-0.545L0.569,-0.164L0.564,-0.164L0.529,-0.545L0.4,-0.545L0.238,-0.162L0.233,-0.162L0.201,-0.545L0.07,-0.545L0.133,0Z" style="fill:white;fill-rule:nonzero;"/>
                    </g>
                    <g transform="matrix(59.1629,0,0,59.1629,242.396,233.712)">
                        <path d="M0.261,0.011C0.418,0.011 0.537,-0.1 0.565,-0.267C0.592,-0.438 0.509,-0.553 0.347,-0.553C0.189,-0.553 0.071,-0.441 0.043,-0.274C0.016,-0.104 0.099,0.011 0.261,0.011ZM0.271,-0.092C0.185,-0.092 0.156,-0.169 0.172,-0.268C0.189,-0.369 0.248,-0.451 0.337,-0.451C0.423,-0.451 0.452,-0.373 0.436,-0.275C0.419,-0.173 0.36,-0.092 0.271,-0.092Z" style="fill:white;fill-rule:nonzero;"/>
                    </g>
                    <g transform="matrix(59.1629,0,0,59.1629,278.365,233.712)">
                        <path d="M0.021,0L0.149,0L0.202,-0.321C0.214,-0.39 0.274,-0.439 0.344,-0.439C0.367,-0.439 0.393,-0.435 0.404,-0.431L0.424,-0.55C0.411,-0.552 0.392,-0.553 0.378,-0.553C0.315,-0.553 0.256,-0.518 0.227,-0.455L0.221,-0.455L0.236,-0.545L0.112,-0.545L0.021,0Z" style="fill:white;fill-rule:nonzero;"/>
                    </g>
                    <g transform="matrix(59.1629,0,0,59.1629,301.874,233.712)">
                        <path d="M0.021,0L0.149,0L0.18,-0.184L0.235,-0.233L0.363,0L0.517,0L0.344,-0.31L0.595,-0.545L0.445,-0.545L0.212,-0.326L0.203,-0.326L0.27,-0.727L0.141,-0.727L0.021,0Z" style="fill:white;fill-rule:nonzero;"/>
                    </g>
                    <g transform="matrix(59.1629,0,0,59.1629,335.532,233.712)">
                        <path d="M0.107,0.008C0.149,0.008 0.187,-0.027 0.19,-0.07C0.192,-0.112 0.158,-0.147 0.116,-0.147C0.073,-0.147 0.035,-0.113 0.033,-0.07C0.031,-0.027 0.064,0.008 0.107,0.008Z" style="fill:white;fill-rule:nonzero;"/>
                    </g>
                    <g transform="matrix(59.1629,0,0,59.1629,352.718,233.712)">
                        <path d="M0.021,0L0.149,0L0.24,-0.545L0.112,-0.545L0.021,0ZM0.195,-0.624C0.235,-0.624 0.272,-0.655 0.275,-0.693C0.278,-0.732 0.247,-0.763 0.206,-0.763C0.165,-0.763 0.129,-0.732 0.126,-0.693C0.123,-0.655 0.154,-0.624 0.195,-0.624Z" style="fill:white;fill-rule:nonzero;"/>
                    </g>
                    <g transform="matrix(59.1629,0,0,59.1629,368.139,233.712)">
                        <path d="M0.202,-0.32C0.216,-0.398 0.271,-0.444 0.339,-0.444C0.406,-0.444 0.438,-0.4 0.426,-0.327L0.371,0L0.5,0L0.558,-0.347C0.58,-0.478 0.517,-0.553 0.406,-0.553C0.324,-0.553 0.26,-0.514 0.226,-0.453L0.219,-0.453L0.235,-0.545L0.112,-0.545L0.021,0L0.15,0L0.202,-0.32Z" style="fill:white;fill-rule:nonzero;"/>
                    </g>
                    <g transform="matrix(59.1629,0,0,59.1629,404.212,233.712)">
                        <path d="M0.021,0L0.149,0L0.18,-0.184L0.235,-0.233L0.363,0L0.517,0L0.344,-0.31L0.595,-0.545L0.445,-0.545L0.212,-0.326L0.203,-0.326L0.27,-0.727L0.141,-0.727L0.021,0Z" style="fill:white;fill-rule:nonzero;"/>
                    </g>
                </g>
            </g>
        </g>
    </g>
</svg>